<svg width="100" height="100" viewBox="0 0 100 100" fill="none" xmlns="http://www.w3.org/2000/svg">
<g clip-path="url(#clip0_1_2)">
<mask id="path-1-outside-1_1_2" maskUnits="userSpaceOnUse" x="8" y="16" width="80" height="68" fill="black">
<rect fill="white" x="8" y="16" width="80" height="68"/>
<path d="M9.84 81V17.64H35.376C39.28 17.64 42.736 17.992 45.744 18.696C48.816 19.4 51.408 20.456 53.52 21.864C55.696 23.208 57.328 24.904 58.416 26.952C59.568 29 60.144 31.4 60.144 34.152C60.144 36.712 59.6 39.016 58.512 41.064C57.488 43.112 55.792 44.776 53.424 46.056C51.12 47.272 48.08 48.04 44.304 48.36V49.224C50.768 49.544 55.44 51.048 58.32 53.736C61.264 56.424 62.736 59.976 62.736 64.392C62.736 68.104 61.776 71.176 59.856 73.608C57.936 76.04 55.12 77.896 51.408 79.176C47.76 80.392 43.216 81 37.776 81H9.84ZM25.392 68.52H37.104C40.368 68.52 42.896 67.944 44.688 66.792C46.48 65.576 47.376 63.88 47.376 61.704C47.376 59.272 46.352 57.48 44.304 56.328C42.32 55.112 39.312 54.504 35.28 54.504H25.392V68.52ZM25.392 43.944H33.744C37.392 43.944 40.176 43.336 42.096 42.12C44.016 40.904 44.976 39.112 44.976 36.744C44.976 34.504 44.112 32.84 42.384 31.752C40.656 30.6 38.064 30.024 34.608 30.024H25.392V43.944ZM76.1183 82.248C72.8543 82.248 70.3903 81.544 68.7263 80.136C67.1263 78.728 66.3263 76.552 66.3263 73.608C66.3263 70.6 67.1263 68.392 68.7263 66.984C70.3903 65.576 72.8543 64.872 76.1183 64.872C79.4463 64.872 81.9423 65.576 83.6063 66.984C85.2703 68.392 86.1023 70.6 86.1023 73.608C86.1023 79.368 82.7743 82.248 76.1183 82.248Z"/>
</mask>
<path d="M9.84 81V17.64H35.376C39.28 17.64 42.736 17.992 45.744 18.696C48.816 19.4 51.408 20.456 53.52 21.864C55.696 23.208 57.328 24.904 58.416 26.952C59.568 29 60.144 31.4 60.144 34.152C60.144 36.712 59.6 39.016 58.512 41.064C57.488 43.112 55.792 44.776 53.424 46.056C51.12 47.272 48.08 48.04 44.304 48.36V49.224C50.768 49.544 55.44 51.048 58.32 53.736C61.264 56.424 62.736 59.976 62.736 64.392C62.736 68.104 61.776 71.176 59.856 73.608C57.936 76.04 55.12 77.896 51.408 79.176C47.76 80.392 43.216 81 37.776 81H9.84ZM25.392 68.52H37.104C40.368 68.52 42.896 67.944 44.688 66.792C46.48 65.576 47.376 63.88 47.376 61.704C47.376 59.272 46.352 57.48 44.304 56.328C42.32 55.112 39.312 54.504 35.28 54.504H25.392V68.52ZM25.392 43.944H33.744C37.392 43.944 40.176 43.336 42.096 42.12C44.016 40.904 44.976 39.112 44.976 36.744C44.976 34.504 44.112 32.84 42.384 31.752C40.656 30.6 38.064 30.024 34.608 30.024H25.392V43.944ZM76.1183 82.248C72.8543 82.248 70.3903 81.544 68.7263 80.136C67.1263 78.728 66.3263 76.552 66.3263 73.608C66.3263 70.6 67.1263 68.392 68.7263 66.984C70.3903 65.576 72.8543 64.872 76.1183 64.872C79.4463 64.872 81.9423 65.576 83.6063 66.984C85.2703 68.392 86.1023 70.6 86.1023 73.608C86.1023 79.368 82.7743 82.248 76.1183 82.248Z" fill="black"/>
<path d="M9.84 81H8.84V82H9.84V81ZM9.84 17.64V16.64H8.84V17.64H9.84ZM45.744 18.696L45.5161 19.6697L45.5206 19.6707L45.744 18.696ZM53.52 21.864L52.9653 22.696L52.9797 22.7057L52.9945 22.7148L53.52 21.864ZM58.416 26.952L57.5329 27.4212L57.5385 27.4318L57.5444 27.4423L58.416 26.952ZM58.512 41.064L57.6289 40.5948L57.6231 40.6057L57.6176 40.6168L58.512 41.064ZM53.424 46.056L53.8908 46.9404L53.8995 46.9357L53.424 46.056ZM44.304 48.36L44.2196 47.3636L43.304 47.4412V48.36H44.304ZM44.304 49.224H43.304V50.1757L44.2546 50.2228L44.304 49.224ZM58.32 53.736L57.6376 54.4671L57.6457 54.4745L58.32 53.736ZM59.856 73.608L60.6409 74.2276V74.2276L59.856 73.608ZM51.408 79.176L51.7242 80.1247L51.734 80.1214L51.408 79.176ZM25.392 68.52H24.392V69.52H25.392V68.52ZM44.688 66.792L45.2288 67.6332L45.2392 67.6265L45.2495 67.6195L44.688 66.792ZM44.304 56.328L43.7814 57.1806L43.7974 57.1904L43.8137 57.1996L44.304 56.328ZM25.392 54.504V53.504H24.392V54.504H25.392ZM25.392 43.944H24.392V44.944H25.392V43.944ZM42.096 42.12L41.561 41.2752H41.5609L42.096 42.12ZM42.384 31.752L41.8293 32.584L41.8402 32.5913L41.8512 32.5982L42.384 31.752ZM25.392 30.024V29.024H24.392V30.024H25.392ZM9.84 81H10.84V17.64H9.84H8.84V81H9.84ZM9.84 17.64V18.64H35.376V17.64V16.64H9.84V17.64ZM35.376 17.64V18.64C39.2224 18.64 42.5994 18.987 45.5161 19.6697L45.744 18.696L45.9719 17.7223C42.8726 16.997 39.3376 16.64 35.376 16.64V17.64ZM45.744 18.696L45.5206 19.6707C48.502 20.354 50.9753 21.3694 52.9653 22.696L53.52 21.864L54.0747 21.0319C51.8407 19.5426 49.13 18.446 45.9674 17.7213L45.744 18.696ZM53.52 21.864L52.9945 22.7148C55.0355 23.9754 56.5365 25.5456 57.5329 27.4212L58.416 26.952L59.2991 26.4828C58.1195 24.2624 56.3565 22.4406 54.0455 21.0132L53.52 21.864ZM58.416 26.952L57.5444 27.4423C58.5988 29.3167 59.144 31.5422 59.144 34.152H60.144H61.144C61.144 31.2578 60.5372 28.6832 59.2876 26.4617L58.416 26.952ZM60.144 34.152H59.144C59.144 36.5657 58.6324 38.7059 57.6289 40.5948L58.512 41.064L59.3951 41.5332C60.5676 39.3261 61.144 36.8583 61.144 34.152H60.144ZM58.512 41.064L57.6176 40.6168C56.7007 42.4504 55.1683 43.9764 52.9485 45.1763L53.424 46.056L53.8995 46.9357C56.4157 45.5756 58.2753 43.7736 59.4064 41.5112L58.512 41.064ZM53.424 46.056L52.9572 45.1716C50.813 46.3033 47.9176 47.0502 44.2196 47.3636L44.304 48.36L44.3884 49.3564C48.2424 49.0298 51.4271 48.2407 53.8908 46.9404L53.424 46.056ZM44.304 48.36H43.304V49.224H44.304H45.304V48.36H44.304ZM44.304 49.224L44.2546 50.2228C50.6235 50.5381 55.0112 52.0157 57.6377 54.4671L58.32 53.736L59.0023 53.0049C55.8688 50.0803 50.9125 48.5499 44.3534 48.2252L44.304 49.224ZM58.32 53.736L57.6457 54.4745C60.3586 56.9514 61.736 60.2233 61.736 64.392H62.736H63.736C63.736 59.7287 62.1694 55.8966 58.9943 52.9975L58.32 53.736ZM62.736 64.392H61.736C61.736 67.9252 60.8257 70.7659 59.0711 72.9884L59.856 73.608L60.6409 74.2276C62.7263 71.5861 63.736 68.2828 63.736 64.392H62.736ZM59.856 73.608L59.0711 72.9884C57.2977 75.2346 54.6611 76.9965 51.082 78.2306L51.408 79.176L51.734 80.1214C55.5789 78.7955 58.5743 76.8454 60.6409 74.2276L59.856 73.608ZM51.408 79.176L51.0918 78.2273C47.5784 79.3985 43.1494 80 37.776 80V81V82C43.2826 82 47.9416 81.3856 51.7242 80.1247L51.408 79.176ZM37.776 81V80H9.84V81V82H37.776V81ZM25.392 68.52V69.52H37.104V68.52V67.52H25.392V68.52ZM37.104 68.52V69.52C40.4652 69.52 43.211 68.9303 45.2288 67.6332L44.688 66.792L44.1472 65.9508C42.581 66.9577 40.2708 67.52 37.104 67.52V68.52ZM44.688 66.792L45.2495 67.6195C47.3174 66.2163 48.376 64.2095 48.376 61.704H47.376H46.376C46.376 63.5505 45.6427 64.9357 44.1265 65.9645L44.688 66.792ZM47.376 61.704H48.376C48.376 58.9264 47.1706 56.7931 44.7943 55.4564L44.304 56.328L43.8137 57.1996C45.5334 58.1669 46.376 59.6176 46.376 61.704H47.376ZM44.304 56.328L44.8266 55.4754C42.6082 54.1157 39.378 53.504 35.28 53.504V54.504V55.504C39.246 55.504 42.0319 56.1083 43.7814 57.1806L44.304 56.328ZM35.28 54.504V53.504H25.392V54.504V55.504H35.28V54.504ZM25.392 54.504H24.392V68.52H25.392H26.392V54.504H25.392ZM25.392 43.944V44.944H33.744V43.944V42.944H25.392V43.944ZM33.744 43.944V44.944C37.4773 44.944 40.4813 44.3263 42.6311 42.9648L42.096 42.12L41.5609 41.2752C39.8707 42.3457 37.3067 42.944 33.744 42.944V43.944ZM42.096 42.12L42.6311 42.9648C44.8549 41.5564 45.976 39.4373 45.976 36.744H44.976H43.976C43.976 38.7867 43.1771 40.2516 41.561 41.2752L42.096 42.12ZM44.976 36.744H45.976C45.976 34.2002 44.9677 32.1971 42.9168 30.9058L42.384 31.752L41.8512 32.5982C43.2563 33.4829 43.976 34.8078 43.976 36.744H44.976ZM42.384 31.752L42.9387 30.9199C40.9701 29.6075 38.1435 29.024 34.608 29.024V30.024V31.024C37.9845 31.024 40.3419 31.5925 41.8293 32.584L42.384 31.752ZM34.608 30.024V29.024H25.392V30.024V31.024H34.608V30.024ZM25.392 30.024H24.392V43.944H25.392H26.392V30.024H25.392ZM68.7262 80.136L68.0656 80.8867L68.0729 80.8931L68.0803 80.8994L68.7262 80.136ZM68.7262 66.984L68.0803 66.2206L68.0729 66.2269L68.0656 66.2333L68.7262 66.984ZM83.6062 66.984L82.9603 67.7474V67.7474L83.6062 66.984ZM76.1182 82.248V81.248C72.9772 81.248 70.7846 80.5677 69.3722 79.3726L68.7262 80.136L68.0803 80.8994C69.9959 82.5203 72.7313 83.248 76.1182 83.248V82.248ZM68.7262 80.136L69.3869 79.3853C68.0756 78.2313 67.3263 76.3787 67.3263 73.608H66.3263H65.3263C65.3263 76.7253 66.1769 79.2247 68.0656 80.8867L68.7262 80.136ZM66.3263 73.608H67.3263C67.3263 70.7653 68.0799 68.8849 69.3869 67.7347L68.7262 66.984L68.0656 66.2333C66.1726 67.8991 65.3263 70.4347 65.3263 73.608H66.3263ZM68.7262 66.984L69.3722 67.7474C70.7846 66.5523 72.9772 65.872 76.1182 65.872V64.872V63.872C72.7313 63.872 69.9959 64.5997 68.0803 66.2206L68.7262 66.984ZM76.1182 64.872V65.872C79.3291 65.872 81.5508 66.5547 82.9603 67.7474L83.6062 66.984L84.2522 66.2206C82.3337 64.5973 79.5634 63.872 76.1182 63.872V64.872ZM83.6062 66.984L82.9603 67.7474C84.3235 68.9009 85.1022 70.777 85.1022 73.608H86.1022H87.1022C87.1022 70.423 86.217 67.8831 84.2522 66.2206L83.6062 66.984ZM86.1022 73.608H85.1022C85.1022 76.2931 84.3333 78.1364 82.9519 79.3318C81.5428 80.5512 79.3247 81.248 76.1182 81.248V82.248V83.248C79.5678 83.248 82.3417 82.5048 84.2606 80.8442C86.2072 79.1596 87.1022 76.6829 87.1022 73.608H86.1022Z" fill="#CD5C5C" mask="url(#path-1-outside-1_1_2)"/>
<path d="M21.9756 81C17.3851 81.2158 13.2173 81.1915 10 81H21.9756C37.3608 80.2768 57.4937 76.8573 62.5 68C60 78.5 49.5 82 31 81H21.9756Z" fill="#CD5C5C"/>
</g>
<defs>
<clipPath id="clip0_1_2">
<rect width="100" height="100" fill="white"/>
</clipPath>
</defs>
</svg>
